<svg width="398" height="141" viewBox="0 0 398 141" fill="none" xmlns="http://www.w3.org/2000/svg">
<path d="M9 60C13.887 62.27 14 61.5 19 63" stroke="black" stroke-width="4.943" stroke-linecap="round"/>
<path d="M19 63C24.5 63 24.387 63.77 30 63" stroke="black" stroke-width="3.694" stroke-linecap="round"/>
<path d="M30 63C37.561 63.697 37.5 63 45 63" stroke="black" stroke-width="3.233" stroke-linecap="round"/>
<path d="M45 63C53.871 62.622 53.561 62.197 62 60" stroke="black" stroke-width="2.91" stroke-linecap="round"/>
<path d="M62 60C69.234 56.903 69.371 57.622 76 53" stroke="black" stroke-width="2.923" stroke-linecap="round"/>
<path d="M76 53C82.422 49.515 82.234 49.403 88 45" stroke="black" stroke-width="2.948" stroke-linecap="round"/>
<path d="M88 45C93.13 40.975 92.922 41.015 97 36" stroke="black" stroke-width="3.075" stroke-linecap="round"/>
<path d="M97 36C100.221 31.743 100.13 31.975 102 27" stroke="black" stroke-width="3.31" stroke-linecap="round"/>
<path d="M102 27C102.73 23.516 103.221 23.743 103 20" stroke="black" stroke-width="3.748" stroke-linecap="round"/>
<path d="M103 20C104.657 16.025 103.23 17.016 103 14" stroke="black" stroke-width="3.982" stroke-linecap="round"/>
<path d="M103 14C98.788 10.064 100.157 10.525 94 9" stroke="black" stroke-width="4.211" stroke-linecap="round"/>
<path d="M94 9C88.863 8.068 89.788 8.064 85 10" stroke="black" stroke-width="3.872" stroke-linecap="round"/>
<path d="M85 10C79.973 13.531 79.863 12.568 76 18" stroke="black" stroke-width="3.383" stroke-linecap="round"/>
<path d="M76 18C72.274 22.855 71.973 22.531 69 28" stroke="black" stroke-width="3.306" stroke-linecap="round"/>
<path d="M69 28C64.898 33.72 65.274 33.855 62 40" stroke="black" stroke-width="3.156" stroke-linecap="round"/>
<path d="M62 40C59.717 47.085 58.898 46.72 57 54" stroke="black" stroke-width="3.046" stroke-linecap="round"/>
<path d="M57 54C53.783 60.915 54.217 61.085 51 68" stroke="black" stroke-width="2.99" stroke-linecap="round"/>
<path d="M51 68C48.108 74.885 48.283 74.915 46 82" stroke="black" stroke-width="2.938" stroke-linecap="round"/>
<path d="M46 82C44.36 88.471 44.108 88.385 43 95" stroke="black" stroke-width="3.027" stroke-linecap="round"/>
<path d="M43 95C42.293 100.57 41.86 100.471 41 106" stroke="black" stroke-width="3.275" stroke-linecap="round"/>
<path d="M41 106C39.557 111.018 39.793 111.07 38 116" stroke="black" stroke-width="3.419" stroke-linecap="round"/>
<path d="M38 116C37.301 119.138 37.057 119.018 36 122" stroke="black" stroke-width="3.826" stroke-linecap="round"/>
<path d="M36 122C35.26 125.644 34.801 124.638 33 127" stroke="black" stroke-width="4.029" stroke-linecap="round"/>
<path d="M33 127C27.843 129.843 30.26 128.644 26 128" stroke="black" stroke-width="4.433" stroke-linecap="round"/>
<path d="M26 128C22.942 122.657 23.343 125.343 24 118" stroke="black" stroke-width="4.598" stroke-linecap="round"/>
<path d="M24 118C26.724 111.402 25.442 111.657 31 106" stroke="black" stroke-width="3.5" stroke-linecap="round"/>
<path d="M31 106C36.559 99.486 36.224 99.402 43 94" stroke="black" stroke-width="2.99" stroke-linecap="round"/>
<path d="M43 94C50.743 88.805 50.059 87.986 58 83" stroke="black" stroke-width="2.707" stroke-linecap="round"/>
<path d="M58 83C65.233 76.16 65.743 76.805 73 70" stroke="black" stroke-width="2.566" stroke-linecap="round"/>
<path d="M73 70C79.919 64.883 79.733 64.66 87 60" stroke="black" stroke-width="2.666" stroke-linecap="round"/>
<path d="M87 60C94.239 54.55 94.419 54.883 102 50" stroke="black" stroke-width="2.71" stroke-linecap="round"/>
<path d="M102 50C108.946 46.386 108.739 46.05 116 43" stroke="black" stroke-width="2.859" stroke-linecap="round"/>
<path d="M116 43C121.32 39.67 121.446 40.386 127 38" stroke="black" stroke-width="3.147" stroke-linecap="round"/>
<path d="M127 38C133.536 36.259 129.82 37.17 133 38" stroke="black" stroke-width="3.792" stroke-linecap="round"/>
<path d="M133 38C128.956 45.54 131.536 42.759 123 51" stroke="black" stroke-width="4.209" stroke-linecap="round"/>
<path d="M123 51C115.923 55.385 116.956 56.54 109 60" stroke="black" stroke-width="3.149" stroke-linecap="round"/>
<path d="M109 60C102.614 64.675 102.423 64.385 96 69" stroke="black" stroke-width="3.039" stroke-linecap="round"/>
<path d="M96 69C89.438 72.903 89.614 73.175 83 77" stroke="black" stroke-width="2.986" stroke-linecap="round"/>
<path d="M83 77C78.733 80.476 78.438 79.903 74 83" stroke="black" stroke-width="3.288" stroke-linecap="round"/>
<path d="M74 83C68.868 86.302 71.233 84.476 68 85" stroke="black" stroke-width="3.817" stroke-linecap="round"/>
<path d="M68 85C67.95 80.222 66.868 83.302 70 77" stroke="black" stroke-width="4.629" stroke-linecap="round"/>
<path d="M70 77C72.333 75.067 71.45 74.722 75 74" stroke="black" stroke-width="4.312" stroke-linecap="round"/>
<path d="M75 74C78.558 71.764 77.333 73.067 80 73" stroke="black" stroke-width="4.714" stroke-linecap="round"/>
<path d="M80 73C81.49 76.431 82.058 74.764 82 80" stroke="black" stroke-width="4.673" stroke-linecap="round"/>
<path d="M82 80C82 83.5 82.49 83.431 82 87" stroke="black" stroke-width="4.114" stroke-linecap="round"/>
<path d="M82 87C82 91.5 82 91.5 82 96" stroke="black" stroke-width="3.799" stroke-linecap="round"/>
<path d="M82 96C81.541 99.557 82 99.5 82 103" stroke="black" stroke-width="3.927" stroke-linecap="round"/>
<path d="M82 103C81.37 109.087 82.541 107.057 84 111" stroke="black" stroke-width="4.329" stroke-linecap="round"/>
<path d="M84 111C88.91 112.169 86.87 113.087 93 111" stroke="black" stroke-width="4.411" stroke-linecap="round"/>
<path d="M93 111C95.75 109.25 95.91 110.169 98 107" stroke="black" stroke-width="4.178" stroke-linecap="round"/>
<path d="M98 107C101.738 102 100.25 104.75 102 102" stroke="black" stroke-width="4.113" stroke-linecap="round"/>
<path d="M102 102C97.73 107.159 102.238 102 99 107" stroke="black" stroke-width="4.856" stroke-linecap="round"/>
<path d="M99 107C104.717 104.337 101.73 106.659 110 101" stroke="black" stroke-width="4.99" stroke-linecap="round"/>
<path d="M110 101C113.894 97.843 114.217 98.337 118 95" stroke="black" stroke-width="3.879" stroke-linecap="round"/>
<path d="M118 95C122.22 91.48 120.394 93.343 123 92" stroke="black" stroke-width="4.506" stroke-linecap="round"/>
<path d="M123 92C121.92 94.471 123.72 92.48 121 97" stroke="black" stroke-width="4.782" stroke-linecap="round"/>
<path d="M121 97C118 102 119.92 99.971 119 103" stroke="black" stroke-width="4.754" stroke-linecap="round"/>
<path d="M119 103C122.403 102.652 120 104 125 101" stroke="black" stroke-width="5.013" stroke-linecap="round"/>
<path d="M125 101C128.257 96 127.903 99.152 130 96" stroke="black" stroke-width="4.758" stroke-linecap="round"/>
<path d="M130 96C129.352 99.558 131.257 96 131 101" stroke="black" stroke-width="5.144" stroke-linecap="round"/>
<path d="M131 101C134.437 102.452 133.352 103.058 138 103" stroke="black" stroke-width="4.987" stroke-linecap="round"/>
<path d="M138 103C141.515 104.243 140.937 103.452 144 103" stroke="black" stroke-width="4.376" stroke-linecap="round"/>
<path d="M144 103C149.704 97.889 147.515 101.243 150 97" stroke="black" stroke-width="4.481" stroke-linecap="round"/>
<path d="M150 97C145 98.7 150.204 96.389 145 100" stroke="black" stroke-width="4.963" stroke-linecap="round"/>
<path d="M145 100C147.775 102.989 145 101.2 150 102" stroke="black" stroke-width="5.308" stroke-linecap="round"/>
<path d="M150 102C157.246 97.754 156.775 98.989 163 92" stroke="black" stroke-width="4.149" stroke-linecap="round"/>
<path d="M163 92C168.738 85.175 169.246 85.754 174 78" stroke="black" stroke-width="3.057" stroke-linecap="round"/>
<path d="M174 78C180.108 70.346 179.738 70.175 185 62" stroke="black" stroke-width="2.742" stroke-linecap="round"/>
<path d="M185 62C187.902 55.453 188.608 55.846 191 49" stroke="black" stroke-width="2.953" stroke-linecap="round"/>
<path d="M191 49C194.117 43.055 193.902 42.953 197 37" stroke="black" stroke-width="3.084" stroke-linecap="round"/>
<path d="M197 37C199.173 32.567 199.117 32.555 201 28" stroke="black" stroke-width="3.403" stroke-linecap="round"/>
<path d="M201 28C204.099 22.44 202.173 25.067 203 22" stroke="black" stroke-width="3.863" stroke-linecap="round"/>
<path d="M203 22C198.675 23.134 201.599 21.44 196 26" stroke="black" stroke-width="4.509" stroke-linecap="round"/>
<path d="M196 26C192.514 31.509 191.675 30.634 189 37" stroke="black" stroke-width="3.491" stroke-linecap="round"/>
<path d="M189 37C184.153 43.802 184.514 44.009 180 51" stroke="black" stroke-width="3.01" stroke-linecap="round"/>
<path d="M180 51C176.177 56.711 176.653 56.802 174 63" stroke="black" stroke-width="3.103" stroke-linecap="round"/>
<path d="M174 63C172.46 69.992 171.677 69.711 171 77" stroke="black" stroke-width="3.124" stroke-linecap="round"/>
<path d="M171 77C169.593 81.96 169.96 81.992 169 87" stroke="black" stroke-width="3.336" stroke-linecap="round"/>
<path d="M169 87C168.234 90.681 168.593 90.46 169 94" stroke="black" stroke-width="3.765" stroke-linecap="round"/>
<path d="M169 94C169.625 98.416 169.734 97.181 172 100" stroke="black" stroke-width="4.359" stroke-linecap="round"/>
<path d="M172 100C175.094 100.581 174.125 101.416 178 100" stroke="black" stroke-width="4.26" stroke-linecap="round"/>
<path d="M178 100C182.739 99.019 182.594 99.081 187 97" stroke="black" stroke-width="3.783" stroke-linecap="round"/>
<path d="M187 97C192.251 94.364 192.239 94.519 197 91" stroke="black" stroke-width="3.517" stroke-linecap="round"/>
<path d="M197 91C205.17 86.219 204.251 85.864 211 80" stroke="black" stroke-width="2.94" stroke-linecap="round"/>
<path d="M211 80C213 76 212.67 78.219 212 75" stroke="black" stroke-width="4.07" stroke-linecap="round"/>
<path d="M212 75C209.172 74.815 211 74 207 76" stroke="black" stroke-width="4.697" stroke-linecap="round"/>
<path d="M207 76C203.9 78.39 203.672 77.815 201 81" stroke="black" stroke-width="4.015" stroke-linecap="round"/>
<path d="M201 81C198.315 82.633 198.9 82.89 197 85" stroke="black" stroke-width="4.157" stroke-linecap="round"/>
<path d="M197 85C194.559 88.919 195.815 87.133 196 90" stroke="black" stroke-width="4.645" stroke-linecap="round"/>
<path d="M196 90C200.489 90.699 198.559 91.919 205 91" stroke="black" stroke-width="4.501" stroke-linecap="round"/>
<path d="M205 91C208 91 207.989 91.199 211 91" stroke="black" stroke-width="4.255" stroke-linecap="round"/>
<path d="M211 91C215.5 89.5 214 91 217 91" stroke="black" stroke-width="4.624" stroke-linecap="round"/>
<path d="M217 91C217 94 218.5 92.5 217 97" stroke="black" stroke-width="4.909" stroke-linecap="round"/>
<path d="M217 97C215.638 102.546 217 100 217 103" stroke="black" stroke-width="4.834" stroke-linecap="round"/>
<path d="M217 103C220.378 101.435 218.638 103.546 223 99" stroke="black" stroke-width="4.891" stroke-linecap="round"/>
<path d="M223 99C227.294 94.735 227.378 94.935 231 90" stroke="black" stroke-width="3.717" stroke-linecap="round"/>
<path d="M231 90C235.955 82.967 236.294 83.235 241 76" stroke="black" stroke-width="2.95" stroke-linecap="round"/>
<path d="M241 76C246.787 68.695 246.455 68.467 252 61" stroke="black" stroke-width="2.697" stroke-linecap="round"/>
<path d="M252 61C256.582 52.7 257.287 53.195 262 45" stroke="black" stroke-width="2.675" stroke-linecap="round"/>
<path d="M262 45C267.302 39.973 266.082 39.2 271 34" stroke="black" stroke-width="2.881" stroke-linecap="round"/>
<path d="M271 34C273.982 29.09 273.802 29.473 275 24" stroke="black" stroke-width="3.253" stroke-linecap="round"/>
<path d="M275 24C275.55 18.031 275.482 21.59 274 19" stroke="black" stroke-width="4.249" stroke-linecap="round"/>
<path d="M274 19C266.068 26.117 267.55 23.031 259 34" stroke="black" stroke-width="3.372" stroke-linecap="round"/>
<path d="M259 34C253.288 40.846 253.068 40.617 248 48" stroke="black" stroke-width="2.842" stroke-linecap="round"/>
<path d="M248 48C244.569 52.258 244.788 52.346 242 57" stroke="black" stroke-width="3.234" stroke-linecap="round"/>
<path d="M242 57C238.019 64.315 238.069 64.258 235 72" stroke="black" stroke-width="2.955" stroke-linecap="round"/>
<path d="M235 72C232.153 78.373 232.519 78.315 231 85" stroke="black" stroke-width="3.072" stroke-linecap="round"/>
<path d="M231 85C231 90 230.153 89.873 231 95" stroke="black" stroke-width="3.386" stroke-linecap="round"/>
<path d="M231 95C229.584 98.875 231 98 231 101" stroke="black" stroke-width="3.892" stroke-linecap="round"/>
<path d="M231 101C234.041 104.395 232.584 103.375 237 104" stroke="black" stroke-width="4.437" stroke-linecap="round"/>
<path d="M237 104C241.855 102.014 241.541 103.395 246 99" stroke="black" stroke-width="3.739" stroke-linecap="round"/>
<path d="M246 99C252.849 93.858 252.855 94.014 259 88" stroke="black" stroke-width="2.966" stroke-linecap="round"/>
<path d="M259 88C263.057 83.549 263.349 83.858 267 79" stroke="black" stroke-width="3.187" stroke-linecap="round"/>
<path d="M267 79C271.494 72.747 269.557 76.049 272 73" stroke="black" stroke-width="3.669" stroke-linecap="round"/>
<path d="M272 73C269.782 76.353 272.494 73.247 269 80" stroke="black" stroke-width="4.547" stroke-linecap="round"/>
<path d="M269 80C267.395 84.86 268.282 83.353 269 87" stroke="black" stroke-width="4.629" stroke-linecap="round"/>
<path d="M269 87C272.089 87.168 270.395 88.86 275 88" stroke="black" stroke-width="4.323" stroke-linecap="round"/>
<path d="M275 88C279.731 88.623 279.089 89.168 283 91" stroke="black" stroke-width="4.404" stroke-linecap="round"/>
<path d="M283 91C284.858 93.335 285.231 92.623 286 96" stroke="black" stroke-width="4.294" stroke-linecap="round"/>
<path d="M286 96C287.082 100.684 287.858 100.335 289 105" stroke="black" stroke-width="3.73" stroke-linecap="round"/>
<path d="M289 105C290.941 109.922 291.082 109.684 294 114" stroke="black" stroke-width="3.568" stroke-linecap="round"/>
<path d="M294 114C296.813 118.783 296.941 117.922 301 121" stroke="black" stroke-width="3.502" stroke-linecap="round"/>
<path d="M301 121C305.946 122.806 305.313 123.283 311 123" stroke="black" stroke-width="3.455" stroke-linecap="round"/>
<path d="M311 123C319.921 125.034 318.946 123.306 327 122" stroke="black" stroke-width="3.043" stroke-linecap="round"/>
<path d="M327 122C337.478 116.048 337.421 117.534 346 108" stroke="black" stroke-width="2.459" stroke-linecap="round"/>
<path d="M346 108C355.18 98.508 355.478 99.048 363 88" stroke="black" stroke-width="2.28" stroke-linecap="round"/>
<path d="M363 88C371.329 76.953 371.18 77.008 378 65" stroke="black" stroke-width="2.188" stroke-linecap="round"/>
<path d="M378 65C383.128 55.209 383.329 55.453 387 45" stroke="black" stroke-width="2.42" stroke-linecap="round"/>
<path d="M228 30C235 30 235 30 242 30" stroke="black" stroke-width="4.747" stroke-linecap="round"/>
<path d="M242 30C252 30 252 30 262 30" stroke="black" stroke-width="2.914" stroke-linecap="round"/>
<path d="M262 30C273.5 30 273.5 30 285 30" stroke="black" stroke-width="2.527" stroke-linecap="round"/>
<path d="M285 30C292.52 29.675 292.5 30 300 30" stroke="black" stroke-width="2.779" stroke-linecap="round"/>
</svg>
